<svg version="1.0" xmlns="http://www.w3.org/2000/svg"
 width="383.000000pt" height="480.000000pt" viewBox="0 0 383.000000 480.000000"
 preserveAspectRatio="xMidYMid meet">

<g transform="translate(0.000000,480.000000) scale(0.100000,-0.100000)"
fill="#000000" stroke="none">
<path d="M2465 4365 c-118 -22 -178 -51 -265 -129 -88 -79 -163 -207 -199
-337 -11 -41 -36 -130 -56 -198 -30 -106 -33 -130 -25 -162 13 -46 22 -209 12
-209 -4 0 -33 23 -66 50 -77 66 -128 96 -201 114 -81 22 -123 20 -240 -8 -83
-20 -104 -30 -127 -55 -35 -39 -35 -74 -3 -113 14 -16 26 -42 27 -56 4 -81 4
-83 -34 -123 -38 -40 -93 -137 -110 -194 -41 -138 -57 -341 -35 -435 9 -36 18
-101 22 -145 7 -91 34 -216 64 -296 25 -65 27 -109 6 -109 -9 0 -18 7 -21 15
-4 9 -19 15 -38 15 -30 0 -33 -3 -43 -45 -8 -34 -7 -47 2 -53 16 -9 2 -142
-25 -233 -29 -95 -86 -205 -131 -250 -22 -22 -39 -48 -39 -58 0 -22 98 -115
175 -165 66 -44 155 -81 232 -96 l62 -12 -14 -29 c-21 -40 -18 -76 8 -103 22
-23 47 -61 47 -71 0 -3 -24 -5 -52 -6 -29 0 -91 -11 -138 -22 -74 -19 -86 -25
-94 -49 -7 -20 -5 -33 8 -52 21 -33 114 -80 191 -97 76 -16 307 -17 361 -1 43
13 80 45 86 77 2 11 9 19 16 18 6 -2 120 -8 252 -15 255 -12 402 -4 491 27 23
8 52 15 65 15 13 0 47 15 76 33 29 19 94 51 143 72 50 21 117 51 150 68 l60
30 -26 20 c-31 22 -155 79 -279 126 -47 18 -102 40 -122 48 l-38 16 0 108 c0
59 -3 114 -6 123 -3 9 -1 16 5 16 6 0 11 -7 11 -15 0 -8 5 -15 11 -15 7 0 8
13 4 38 -6 38 -5 40 52 82 32 25 91 77 131 117 40 40 79 73 87 73 8 0 41 26
73 58 67 65 108 138 153 274 35 104 34 152 -7 253 -14 33 -31 98 -40 145 -8
47 -22 107 -30 134 -34 101 12 498 82 721 14 44 32 113 40 153 16 86 18 266 4
343 -6 30 -15 87 -20 127 -14 110 -71 222 -153 297 -76 71 -175 129 -254 150
-68 18 -182 18 -278 0z m315 -144 c85 -29 101 -38 149 -89 95 -99 129 -213
106 -358 -6 -34 -3 -45 20 -72 21 -25 27 -45 32 -102 3 -39 2 -70 -3 -70 -5 0
-20 20 -33 45 -13 24 -51 78 -85 119 -85 105 -100 127 -106 156 -7 34 -38 37
-66 6 -36 -38 -80 -46 -289 -56 -194 -10 -245 -16 -245 -31 0 -4 46 -44 103
-89 173 -138 392 -226 590 -237 53 -3 97 -9 97 -13 0 -3 -17 -47 -39 -96 -72
-167 -86 -242 -86 -469 -1 -140 3 -211 12 -235 32 -86 54 -184 68 -298 9 -67
13 -126 11 -131 -3 -4 -12 -43 -21 -87 -20 -95 -68 -203 -129 -289 -114 -159
-375 -339 -552 -381 -101 -24 -244 -15 -354 22 l-84 29 -12 80 c-14 101 -36
171 -82 257 -33 62 -39 68 -77 76 -22 4 -42 5 -45 0 -3 -4 -29 -1 -58 6 -28 8
-74 17 -101 21 -33 4 -56 15 -72 31 l-22 24 30 0 c30 0 57 30 34 38 -6 2 -34
15 -63 30 -46 23 -58 36 -85 90 -20 39 -33 79 -33 101 0 36 1 37 29 33 22 -3
32 1 40 17 9 17 1 40 -54 148 -64 126 -65 129 -66 213 -1 47 1 108 5 135 8 55
57 215 66 215 3 0 21 -29 39 -65 25 -47 59 -87 120 -143 85 -78 86 -80 113
-168 15 -49 30 -106 34 -127 5 -28 11 -37 23 -35 44 9 55 169 17 266 -28 70
-105 165 -177 217 -63 45 -79 91 -50 141 37 63 33 131 -14 208 -40 66 -40 66
-22 66 8 0 41 11 75 25 34 14 75 25 90 25 39 0 115 -41 174 -95 44 -40 137
-85 173 -85 19 0 18 -36 -4 -170 -10 -58 -16 -107 -15 -109 6 -7 47 49 86 116
33 57 40 80 57 201 11 75 20 157 19 182 -5 169 2 268 21 324 28 79 144 296
173 322 13 12 41 41 63 64 72 76 115 90 265 86 97 -3 130 -8 210 -35z m30
-456 c0 -8 32 -48 70 -89 39 -42 70 -78 70 -81 0 -2 -17 7 -37 21 -80 55 -133
75 -221 84 -113 13 -284 42 -277 48 2 2 75 8 162 13 87 5 172 12 188 17 34 10
45 7 45 -13z m-170 -128 c117 -31 282 -105 254 -114 -18 -6 -198 44 -275 76
-41 17 -92 43 -114 57 -46 29 -49 30 135 -19z m-1112 -1823 c-4 -3 -27 -6 -53
-6 -26 0 -49 3 -52 6 -4 3 20 6 52 6 32 0 56 -3 53 -6z m-191 -215 c0 -21 -3
-26 -9 -16 -4 9 -5 22 -2 31 9 23 11 20 11 -15z m123 -3 c0 -11 -19 -15 -25
-6 -3 5 1 10 9 10 9 0 16 -2 16 -4z m-106 -52 c3 -8 2 -12 -4 -9 -6 3 -10 10
-10 16 0 14 7 11 14 -7z m-241 -109 c-10 -13 -25 -27 -33 -30 -8 -4 -2 8 14
24 36 37 43 40 19 6z m424 -37 c-3 -8 -6 -5 -6 6 -1 11 2 17 5 13 3 -3 4 -12
1 -19z m428 -19 c84 -24 259 -37 269 -20 4 6 25 11 46 11 35 0 40 -3 45 -27 4
-16 15 -55 26 -89 10 -33 19 -63 19 -65 0 -3 -42 6 -92 20 -86 23 -108 25
-286 24 l-192 -2 14 27 c7 15 22 55 31 90 14 50 21 62 34 57 9 -4 48 -15 86
-26z m532 -21 c-3 -8 -6 -5 -6 6 -1 11 2 17 5 13 3 -3 4 -12 1 -19z m-750 -30
c-3 -8 -6 -5 -6 6 -1 11 2 17 5 13 3 -3 4 -12 1 -19z m-567 -54 c0 -2 -9 0
-20 6 -11 6 -20 13 -20 16 0 2 9 0 20 -6 11 -6 20 -13 20 -16z m1288 -15 c-3
-8 -7 -3 -11 10 -4 17 -3 21 5 13 5 -5 8 -16 6 -23z m23 -19 c-7 -3 -9 -15 -6
-26 6 -17 5 -17 -4 -2 -8 12 -8 24 1 44 11 23 14 24 16 10 2 -10 -1 -22 -7
-26z m-1247 11 c4 -5 -3 -7 -14 -4 -23 6 -26 13 -6 13 8 0 17 -4 20 -9z m126
-47 c0 -2 -7 -4 -15 -4 -8 0 -15 4 -15 10 0 5 7 7 15 4 8 -4 15 -8 15 -10z
m97 -20 c-3 -3 -12 -4 -19 -1 -8 3 -5 6 6 6 11 1 17 -2 13 -5z m1050 -111 c-3
-10 -5 -4 -5 12 0 17 2 24 5 18 2 -7 2 -21 0 -30z m20 -80 c-3 -10 -5 -4 -5
12 0 17 2 24 5 18 2 -7 2 -21 0 -30z m173 27 c8 -5 11 -10 5 -10 -5 0 -17 5
-25 10 -8 5 -10 10 -5 10 6 0 17 -5 25 -10z m-207 -15 c-3 -9 -8 -14 -10 -11
-3 3 -2 9 2 15 9 16 15 13 8 -4z"/>
<path d="M2515 4065 c-14 -13 -25 -36 -25 -50 0 -31 41 -75 70 -75 79 0 105
106 34 139 -37 16 -52 14 -79 -14z"/>
<path d="M1420 3510 c0 -5 7 -10 16 -10 8 0 12 5 9 10 -3 6 -10 10 -16 10 -5
0 -9 -4 -9 -10z"/>
</g>
</svg>
